<svg width="1000" height="219" viewBox="0 0 1000 219" fill="none" xmlns="http://www.w3.org/2000/svg">
<g clip-path="url(#clip0_822_3544)">
<g clip-path="url(#clip1_822_3544)">
<path d="M959.087 74.6743C970.5 74.6743 979.702 78.1701 986.693 85.1618C993.788 92.0506 997.335 100.996 997.335 111.997C997.335 122.999 993.788 131.996 986.693 138.987C979.702 145.876 970.5 149.32 959.087 149.32C947.571 149.32 938.266 145.876 931.172 138.987C924.18 131.996 920.684 122.999 920.684 111.997C920.684 100.996 924.18 92.0506 931.172 85.1618C938.266 78.1701 947.571 74.6743 959.087 74.6743ZM946.749 126.495C949.833 130.196 953.946 132.047 959.087 132.047C964.228 132.047 968.289 130.196 971.271 126.495C974.355 122.793 975.898 117.961 975.898 111.997C975.898 106.034 974.355 101.201 971.271 97.5C968.289 93.7985 964.228 91.9478 959.087 91.9478C953.946 91.9478 949.833 93.7985 946.749 97.5C943.664 101.201 942.122 106.034 942.122 111.997C942.122 117.961 943.664 122.793 946.749 126.495Z" fill="white"/>
<path d="M796.41 74.6743C805.766 74.6743 813.169 77.142 818.619 82.0772C824.171 86.9097 826.947 92.976 826.947 100.276L826.484 105.674L807.823 106.754C808.028 106.342 808.131 105.263 808.131 103.515C808.131 100.225 807.051 97.5 804.892 95.3408C802.836 93.0788 799.906 91.9478 796.101 91.9478C791.269 91.9478 787.362 93.7471 784.38 97.3458C781.501 100.944 780.062 105.674 780.062 111.535C780.062 117.909 781.655 122.948 784.843 126.649C788.133 130.248 792.811 132.047 798.877 132.047C807.514 132.047 814.146 129.219 818.773 123.564L829.106 136.828C826.433 140.221 822.371 143.151 816.922 145.619C811.473 148.087 804.995 149.32 797.489 149.32C785.46 149.32 775.949 145.927 768.957 139.141C762.068 132.253 758.624 123.307 758.624 112.306C758.624 101.099 762.12 92.0506 769.112 85.1618C776.103 78.1701 785.203 74.6743 796.41 74.6743Z" fill="white"/>
<path d="M719.541 133.281C727.047 133.281 733.319 130.505 738.357 124.953L748.381 136.52C745.605 140.118 741.493 143.151 736.043 145.619C730.697 148.087 724.373 149.32 717.073 149.32C705.043 149.32 695.481 145.876 688.387 138.987C681.395 132.098 677.899 123.102 677.899 111.997C677.899 100.996 681.292 92.0506 688.078 85.1618C694.864 78.1701 703.861 74.6743 715.068 74.6743C725.453 74.6743 733.627 77.8617 739.59 84.2364C745.554 90.6112 748.536 98.888 748.536 109.067L747.919 116.778H698.874C699.8 121.817 702.01 125.826 705.506 128.808C709.002 131.79 713.68 133.281 719.541 133.281ZM715.068 90.714C710.853 90.714 707.254 92.0506 704.272 94.7239C701.393 97.2944 699.594 100.996 698.874 105.828H729.257C729.154 101.407 727.818 97.8084 725.247 95.0324C722.78 92.1534 719.387 90.714 715.068 90.714Z" fill="white"/>
<path d="M647.666 75.5997H664.322V145.619C664.322 156.312 660.621 164.897 653.218 171.375C645.815 177.853 635.893 181.091 623.452 181.091C610.188 181.091 599.29 178.212 590.756 172.455L592.866 157.891C599.549 162.929 613.838 164.126 622.989 164.126C629.158 164.126 634.042 162.584 637.641 159.499C641.342 156.518 643.193 152.097 643.193 146.236V137.291C638.463 144.18 631.163 147.624 621.293 147.624C611.628 147.624 603.711 144.437 597.542 138.062C591.373 131.584 588.288 122.588 588.288 111.072C588.288 100.07 591.218 91.2795 597.079 84.6991C602.94 78.0159 610.857 74.6743 620.83 74.6743C632.449 74.6743 640.417 79.5582 644.735 89.3259H645.198C645.095 88.1949 645.301 86.1386 645.815 83.1568C646.329 80.1751 646.946 77.656 647.666 75.5997ZM626.536 129.888C631.575 129.888 635.585 128.14 638.566 124.644C641.651 121.045 643.193 117.087 643.193 112.769V109.53C643.193 104.903 641.651 100.893 638.566 97.5C635.482 94.107 631.318 92.4105 626.074 92.4105C621.139 92.4105 617.18 94.107 614.198 97.5C611.217 100.893 609.726 105.417 609.726 111.072C609.726 116.83 611.217 121.405 614.198 124.798C617.283 128.191 621.396 129.888 626.536 129.888Z" fill="white"/>
<path d="M547.97 74.6743C556.71 74.6743 563.393 77.3476 568.02 82.6941C572.749 88.0407 575.114 95.0324 575.114 103.669V148.395H553.985V107.371C553.985 102.949 552.854 99.4535 550.592 96.8831C548.433 94.2098 545.297 92.8732 541.184 92.8732C536.146 92.8732 532.29 94.6725 529.617 98.2711C527.047 101.87 525.762 106.034 525.762 110.764V148.395H504.632V75.5997L521.135 74.9828C522.883 80.4321 523.757 85.5217 523.757 90.2513H524.373C528.589 79.8666 536.455 74.6743 547.97 74.6743Z" fill="white"/>
<path d="M490.441 52.3107C490.441 56.115 489.105 59.2509 486.431 61.7186C483.758 64.1862 480.519 65.42 476.715 65.42C472.911 65.42 469.672 64.1862 466.999 61.7186C464.428 59.2509 463.143 56.115 463.143 52.3107C463.143 48.6092 464.428 45.5247 466.999 43.057C469.672 40.4866 472.911 39.2014 476.715 39.2014C480.519 39.2014 483.758 40.4866 486.431 43.057C489.105 45.5247 490.441 48.6092 490.441 52.3107ZM466.073 148.394V75.599L487.203 74.9821V148.394H466.073Z" fill="white"/>
<path d="M414.32 74.6743C425.733 74.6743 434.935 78.1701 441.927 85.1618C449.021 92.0506 452.568 100.996 452.568 111.997C452.568 122.999 449.021 131.996 441.927 138.987C434.935 145.876 425.733 149.32 414.32 149.32C402.804 149.32 393.499 145.876 386.405 138.987C379.413 131.996 375.917 122.999 375.917 111.997C375.917 100.996 379.413 92.0506 386.405 85.1618C393.499 78.1701 402.804 74.6743 414.32 74.6743ZM401.982 126.495C405.066 130.196 409.179 132.047 414.32 132.047C419.461 132.047 423.522 130.196 426.504 126.495C429.588 122.793 431.131 117.961 431.131 111.997C431.131 106.034 429.588 101.201 426.504 97.5C423.522 93.7985 419.461 91.9478 414.32 91.9478C409.179 91.9478 405.066 93.7985 401.982 97.5C398.897 101.201 397.355 106.034 397.355 111.997C397.355 117.961 398.897 122.793 401.982 126.495Z" fill="white"/>
<path d="M335.083 74.6743C344.44 74.6743 351.843 77.142 357.292 82.0772C362.844 86.9097 365.62 92.976 365.62 100.276L365.157 105.674L346.496 106.754C346.702 106.342 346.804 105.263 346.804 103.515C346.804 100.225 345.725 97.5 343.566 95.3408C341.509 93.0788 338.579 91.9478 334.775 91.9478C329.942 91.9478 326.035 93.7471 323.053 97.3458C320.174 100.944 318.735 105.674 318.735 111.535C318.735 117.909 320.329 122.948 323.516 126.649C326.806 130.248 331.484 132.047 337.551 132.047C346.188 132.047 352.819 129.219 357.446 123.564L367.779 136.828C365.106 140.221 361.045 143.151 355.595 145.619C350.146 148.087 343.668 149.32 336.163 149.32C324.133 149.32 314.622 145.927 307.631 139.141C300.742 132.253 297.297 123.307 297.297 112.306C297.297 101.099 300.793 92.0506 307.785 85.1618C314.776 78.1701 323.876 74.6743 335.083 74.6743Z" fill="white"/>
<path d="M894.667 115.99C899.047 123.658 903.421 129.897 907.978 136.396C909.955 139.216 911.966 142.084 914.027 145.139C916.645 149.021 913.25 153.673 908.923 151.883C892.05 144.902 879.724 131.767 871.28 119.401H862.23V148.396H841.101V39.5115H862.23V102.899H871.175C876.933 102.899 881.457 101.151 884.747 97.6553C888.037 94.1594 889.682 89.1728 889.682 82.6952C889.682 81.0501 889.477 78.6853 889.065 75.6007H909.269C909.783 77.9655 910.04 80.4846 910.04 83.1579C910.04 97.4784 903.647 109.747 894.667 115.99Z" fill="white"/>
</g>
<g clip-path="url(#clip2_822_3544)">
<path d="M216.215 108.396C216.485 168.532 168.3 217.5 108.6 217.772C48.8905 218.044 0.27142 169.514 0.00113157 109.377C-0.269156 49.2406 47.9158 0.273296 107.625 0.00107199C167.326 -0.262903 215.945 48.2589 216.215 108.396Z" fill="#FFE866"/>
<path d="M162.936 69.923C155.089 67.6379 146.964 64.3878 138.725 61.1128C138.25 59.034 136.423 56.4438 132.721 53.2678C127.34 48.5658 117.233 48.6895 108.502 50.7683C98.8614 48.4833 89.3358 47.6666 80.1952 49.8774C5.44828 70.6242 47.8261 121.217 20.3796 172.089C24.2865 180.429 67.3766 220.499 127.283 216.049C127.283 216.049 106.454 165.639 153.46 141.435C191.587 121.81 219.131 85.3655 162.928 69.9147L162.936 69.923Z" fill="#4BCC00"/>
<path d="M106.92 50.4629C113.613 53.1377 137.574 61.6522 148.147 64.8473C136.187 47.6493 120.391 48.2713 106.92 50.4629Z" fill="#35AF00"/>
<path d="M113.678 82.0525C113.678 93.6839 104.316 103.104 92.7758 103.104C81.2353 103.104 71.8735 93.6839 71.8735 82.0525C71.8735 70.4211 81.2353 61.0088 92.7758 61.0088C104.316 61.0088 113.678 70.4294 113.678 82.0525Z" fill="white"/>
<path d="M189.096 112.35C172.166 124.369 152.894 133.484 125.578 133.484C112.793 133.484 110.196 119.799 101.744 126.505C97.3782 129.97 81.9964 137.716 69.7843 137.13C57.4657 136.536 37.8002 129.327 32.2716 103.086C30.0847 129.327 28.9708 148.663 19.1831 170.82C43.2098 206.131 85.1018 223.699 127.282 216.059C122.752 184.192 150.404 152.985 165.982 137.015C171.879 130.968 183.182 121.094 189.096 112.35Z" fill="#4BCC00"/>
<ellipse cx="101.586" cy="81.9084" rx="12.2657" ry="17.1719" fill="#0D1217"/>
<path d="M101.586 81.9066L86.8671 72.0941V91.7191L101.586 81.9066Z" fill="white"/>
</g>
</g>
<defs>
<clipPath id="clip0_822_3544">
<rect width="1000" height="218.511" fill="white"/>
</clipPath>
<clipPath id="clip1_822_3544">
<rect width="702.703" height="141.892" fill="white" transform="translate(297.297 39.2014)"/>
</clipPath>
<clipPath id="clip2_822_3544">
<rect width="216.216" height="218.511" fill="white"/>
</clipPath>
</defs>
</svg>
