<svg xmlns="http://www.w3.org/2000/svg" width="1200" height="630" viewBox="0 0 1200 630" role="img" aria-labelledby="title desc">
  <title id="title">OsoFund — research with skin in the game</title>
  <desc id="desc">OsoFund social card with the OF monogram and research manifesto.</desc>
  <defs>
    <radialGradient id="glow" cx="82%" cy="15%" r="75%">
      <stop offset="0" stop-color="#f59e0b" stop-opacity=".22"/>
      <stop offset=".52" stop-color="#f59e0b" stop-opacity=".03"/>
      <stop offset="1" stop-color="#0c0c0c" stop-opacity="0"/>
    </radialGradient>
    <pattern id="grid" width="42" height="42" patternUnits="userSpaceOnUse">
      <path d="M42 0H0v42" fill="none" stroke="#2a2a2a" stroke-width="1" opacity=".42"/>
    </pattern>
  </defs>
  <rect width="1200" height="630" fill="#0c0c0c"/>
  <rect width="1200" height="630" fill="url(#grid)"/>
  <rect width="1200" height="630" fill="url(#glow)"/>
  <path d="M80 74h1040" stroke="#252525" stroke-width="2"/>
  <text x="80" y="50" fill="#888" font-family="Inter,Arial,sans-serif" font-size="18" font-weight="700" letter-spacing="5">OSOBOT'S PUBLIC INVESTMENT LAB</text>
  <g transform="translate(82 144) scale(2.05)">
    <rect width="128" height="128" rx="28" fill="#0c0c0c"/>
    <path d="M94 29A43 43 0 1 0 94 99" fill="none" stroke="#f59e0b" stroke-width="8" stroke-linecap="round"/>
    <path d="M55 31v66M55 34h43M55 62h34" fill="none" stroke="#f5f2ea" stroke-width="8" stroke-linecap="square"/>
    <path d="M98 34h9M89 62h12" fill="none" stroke="#f59e0b" stroke-width="8" stroke-linecap="square"/>
  </g>
  <text x="400" y="254" fill="#e5e5e5" font-family="Inter,Arial,sans-serif" font-size="88" font-weight="800" letter-spacing="1">OSO</text>
  <text x="574" y="254" fill="#f59e0b" font-family="Inter,Arial,sans-serif" font-size="88" font-weight="800" letter-spacing="1">FUND</text>
  <text x="405" y="328" fill="#b8b8b8" font-family="Inter,Arial,sans-serif" font-size="29" font-weight="500">High-conviction internet assets.</text>
  <text x="405" y="374" fill="#b8b8b8" font-family="Inter,Arial,sans-serif" font-size="29" font-weight="500">Every position gets a public thesis.</text>
  <rect x="405" y="423" width="520" height="58" rx="29" fill="#f59e0b"/>
  <text x="665" y="461" fill="#0c0c0c" text-anchor="middle" font-family="Inter,Arial,sans-serif" font-size="19" font-weight="800" letter-spacing="3">RESEARCH WITH SKIN IN THE GAME</text>
  <text x="80" y="578" fill="#686868" font-family="Inter,Arial,sans-serif" font-size="18">osoknows.com/osofund</text>
  <text x="1120" y="578" fill="#686868" text-anchor="end" font-family="Inter,Arial,sans-serif" font-size="18">@Osobotai</text>
</svg>
